<svg width="800" height="800" viewBox="0 0 800 800" fill="none" xmlns="http://www.w3.org/2000/svg">
<path d="M776.378 385.576V412.92C776.378 423.335 771.659 433.751 762.21 441.933C652.718 536.794 543.187 631.617 433.702 726.479C424.473 734.477 413.536 738.589 400.535 738.589V711.246C413.537 711.246 424.473 707.133 433.702 699.136C543.187 604.273 652.715 509.446 762.21 414.591C771.659 406.407 776.378 395.995 776.378 385.576Z" fill="#3F6BEA"/>
<path d="M23.625 412.787V410.053V408.686V405.951V403.217V401.85V399.115V396.381V395.014V392.279V389.545V388.178V385.443C23.625 396.933 28.8602 408.344 38.4977 416.708C146.661 510.508 254.942 604.205 363.155 697.974C373.313 706.771 385.609 710.838 400.54 711.25V738.594C385.612 738.182 373.313 734.114 363.155 725.318C254.942 631.549 146.661 537.852 38.4977 444.052C28.8594 435.689 23.625 424.277 23.625 412.787Z" fill="#2154D2"/>
<path d="M399.051 59.8447C411.757 59.8447 424.478 64.0338 434.165 72.4205C543.501 167.099 652.838 261.777 762.149 356.472C781.087 372.874 781.129 398.201 762.211 414.595C652.718 509.454 543.187 604.279 433.704 699.139C424.473 707.139 413.537 711.25 400.538 711.25C385.609 710.838 373.31 706.771 363.152 697.974C254.94 604.205 146.659 510.508 38.4958 416.708C23.1981 403.436 18.9958 382.481 29.2028 365.731C32.2645 360.701 35.9754 356.489 40.5036 352.567C148.401 259.167 256.268 165.744 364.146 72.3182C373.752 64.0057 386.394 59.8447 399.051 59.8447Z" fill="#11131A"/>
<mask id="mask0_5150_28668" style="mask-type:luminance" maskUnits="userSpaceOnUse" x="223" y="203" width="352" height="352">
<path d="M574.561 371.802L399.762 203L222.999 386.043L397.799 554.845L574.561 371.802Z" fill="white"/>
</mask>
<g mask="url(#mask0_5150_28668)">
<path d="M393.266 498.135L389.36 494.363C416.002 463.714 426.705 426.516 418.915 398.366C447.325 405.163 484.122 393.152 513.823 365.479L517.728 369.25C519.413 370.948 521.434 372.277 523.674 373.157C525.915 374.038 528.328 374.454 530.775 374.38C533.221 374.306 535.65 373.744 537.921 372.727C540.191 371.71 542.256 370.258 543.996 368.456C545.736 366.655 547.115 364.54 548.052 362.236C548.989 359.931 549.466 357.484 549.455 355.036C549.443 352.589 548.944 350.191 547.985 347.983C547.027 345.775 545.628 343.801 543.873 342.177L430.439 232.635C428.755 230.937 426.733 229.609 424.493 228.728C422.253 227.847 419.839 227.432 417.393 227.506C414.946 227.579 412.517 228.142 410.247 229.159C407.976 230.176 405.911 231.628 404.171 233.429C402.432 235.23 401.053 237.345 400.115 239.65C399.178 241.954 398.701 244.402 398.713 246.849C398.724 249.296 399.224 251.694 400.182 253.902C401.141 256.111 402.539 258.084 404.295 259.708L408.2 263.48C381.558 294.129 370.856 331.328 378.645 359.478C350.235 352.681 313.438 364.691 283.737 392.365L279.832 388.593C278.148 386.895 276.126 385.567 273.886 384.686C271.646 383.805 269.232 383.39 266.786 383.464C264.339 383.538 261.91 384.1 259.64 385.117C257.369 386.134 255.304 387.586 253.564 389.387C251.825 391.189 250.446 393.303 249.508 395.608C248.571 397.912 248.094 400.36 248.106 402.807C248.117 405.255 248.617 407.653 249.575 409.861C250.534 412.069 251.932 414.043 253.688 415.666L367.122 525.208C368.806 526.906 370.827 528.235 373.067 529.116C375.307 529.996 377.721 530.412 380.168 530.338C382.614 530.264 385.043 529.702 387.314 528.685C389.584 527.668 391.649 526.216 393.389 524.415C395.129 522.613 396.508 520.498 397.445 518.194C398.382 515.889 398.859 513.442 398.848 510.994C398.836 508.547 398.336 506.149 397.378 503.941C396.42 501.733 395.021 499.759 393.266 498.135ZM415.37 244.227C415.908 243.673 416.634 243.345 417.389 243.315C418.144 243.286 418.866 243.557 419.397 244.07L532.831 353.611C533.117 353.859 533.347 354.165 533.507 354.51C533.667 354.855 533.753 355.232 533.761 355.619C533.769 356.006 533.698 356.394 533.553 356.759C533.407 357.125 533.191 357.46 532.916 357.745C532.64 358.03 532.313 358.258 531.953 358.416C531.592 358.574 531.207 358.659 530.82 358.664C530.434 358.67 530.053 358.597 529.703 358.449C529.352 358.301 529.039 358.082 528.782 357.804L415.348 248.262C414.819 247.749 414.524 247.037 414.527 246.282C414.53 245.528 414.831 244.791 415.365 244.233L415.37 244.227ZM502.92 354.939C492.797 364.38 481.18 372.045 468.595 377.583L401.264 300.922C403.966 295.401 407.092 290.084 410.612 285.021L421.368 295.408C422.092 296.107 423.077 296.477 424.108 296.435C425.138 296.394 426.128 295.944 426.861 295.185C427.593 294.427 428.008 293.421 428.014 292.39C428.019 291.359 427.616 290.387 426.891 289.688L415.42 278.61C416.631 277.072 417.837 275.539 419.131 274.035L502.92 354.939ZM397.743 308.941L460.686 380.624C438.678 387.98 417.611 386.052 404.304 373.202C389.38 358.79 387.876 334.123 397.743 308.941ZM393.256 384.642C409.616 400.441 409.894 428.521 396.652 456.16L381.484 432.514C380.259 430.612 379.078 428.632 377.886 426.641C375.175 421.815 372.081 417.226 368.632 412.918C362.403 406.496 354.932 401.406 346.633 397.93C343.434 396.344 340.252 394.764 337.28 392.999L321.652 383.733C348.823 369.546 376.896 368.843 393.256 384.642ZM313.752 388.264L333.091 399.732C336.183 401.612 339.551 403.251 342.881 404.897C350.298 407.93 356.989 412.408 362.579 418.082C365.768 422.08 368.638 426.329 371.163 430.794C372.371 432.822 373.617 434.899 374.88 436.859L392.368 464.127C388.352 471.08 383.684 477.653 378.43 483.753L294.674 402.871C300.571 397.412 306.961 392.52 313.752 388.264ZM378.164 513.774L264.73 404.232C264.444 403.985 264.213 403.679 264.053 403.334C263.893 402.989 263.807 402.611 263.799 402.224C263.791 401.838 263.862 401.45 264.007 401.084C264.153 400.719 264.37 400.384 264.645 400.099C264.92 399.814 265.248 399.585 265.608 399.427C265.968 399.269 266.353 399.185 266.74 399.179C267.127 399.174 267.507 399.247 267.857 399.395C268.208 399.543 268.521 399.762 268.779 400.039L382.213 509.581C382.499 509.829 382.729 510.134 382.889 510.479C383.049 510.824 383.135 511.202 383.143 511.589C383.151 511.975 383.08 512.363 382.935 512.729C382.789 513.094 382.572 513.43 382.297 513.715C382.022 513.999 381.695 514.228 381.335 514.386C380.974 514.544 380.589 514.628 380.202 514.634C379.816 514.639 379.435 514.566 379.085 514.418C378.734 514.271 378.421 514.051 378.164 513.774Z" fill="#8D90A0"/>
</g>
</svg>
